HIERARCHY
ROOT Hips
{
	OFFSET 0.000000 83.214638 0.000000
	CHANNELS 6 Xposition Yposition Zposition Xrotation Yrotation Zrotation
	JOINT Pelvis
	{
		OFFSET 0.000000 0.000000 0.000000
		CHANNELS 3 Xrotation Yrotation Zrotation
		JOINT LeftUpLeg
		{
			OFFSET 8.479700 -4.795502 -0.379100
			CHANNELS 3 Xrotation Yrotation Zrotation
			JOINT LeftLeg
			{
				OFFSET 0.024144 -32.555107 0.112900
				CHANNELS 3 Xrotation Yrotation Zrotation
				JOINT LeftFoot
				{
					OFFSET -0.024144 -32.638630 -3.012600
					CHANNELS 3 Xrotation Yrotation Zrotation
					JOINT LeftToeBase
					{
						OFFSET 0.970200 -13.225400 11.864200
						CHANNELS 3 Xrotation Yrotation Zrotation
						End Site
						{
							OFFSET 0.000000 12.319262 0.000000
						}
					}
					JOINT LFootTongue
					{
						OFFSET 1.142400 -1.059800 6.665200
						CHANNELS 3 Xrotation Yrotation Zrotation
						End Site
						{
							OFFSET 0.000000 12.319262 0.000000
						}
					}
				}
				JOINT LeftPantLeg
				{
					OFFSET 0.918482 -16.533964 -2.284700
					CHANNELS 3 Xrotation Yrotation Zrotation
					End Site
					{
						OFFSET 0.350399 24.744368 0.000000
					}
				}
			}
		}
		JOINT RightUpLeg
		{
			OFFSET -8.479700 -4.795502 -0.379100
			CHANNELS 3 Xrotation Yrotation Zrotation
			JOINT RightLeg
			{
				OFFSET -0.023144 -32.555092 0.112900
				CHANNELS 3 Xrotation Yrotation Zrotation
				JOINT RightFoot
				{
					OFFSET 0.023144 -32.638641 -3.012700
					CHANNELS 3 Xrotation Yrotation Zrotation
					JOINT RightToeBase
					{
						OFFSET -0.970200 -13.225400 11.864200
						CHANNELS 3 Xrotation Yrotation Zrotation
						End Site
						{
							OFFSET 0.000000 12.319244 0.000000
						}
					}
					JOINT RFootTongue
					{
						OFFSET -1.142200 -1.059800 6.665200
						CHANNELS 3 Xrotation Yrotation Zrotation
						End Site
						{
							OFFSET 0.000000 12.319243 0.000000
						}
					}
				}
				JOINT RightPantLeg
				{
					OFFSET -0.919482 -16.533978 -2.284800
					CHANNELS 3 Xrotation Yrotation Zrotation
					End Site
					{
						OFFSET -0.350400 24.744419 0.000000
					}
				}
			}
		}
	}
	JOINT Spine
	{
		OFFSET 0.000000 7.722000 1.166200
		CHANNELS 3 Xrotation Yrotation Zrotation
		JOINT Spine1
		{
			OFFSET 0.000000 12.024101 0.248800
			CHANNELS 3 Xrotation Yrotation Zrotation
			JOINT Spine2
			{
				OFFSET 0.000000 11.502998 -0.491200
				CHANNELS 3 Xrotation Yrotation Zrotation
				JOINT Neck
				{
					OFFSET 0.000000 18.430702 -3.123100
					CHANNELS 3 Xrotation Yrotation Zrotation
					JOINT Head
					{
						OFFSET 0.000000 9.051102 1.034000
						CHANNELS 3 Xrotation Yrotation Zrotation
						JOINT HairB
						{
							OFFSET 0.208400 24.786102 24.822300
							CHANNELS 3 Xrotation Yrotation Zrotation
							End Site
							{
								OFFSET 0.000000 32.263779 0.000000
							}
						}
						JOINT HairA
						{
							OFFSET -7.081100 24.428299 23.196600
							CHANNELS 3 Xrotation Yrotation Zrotation
							End Site
							{
								OFFSET 0.000000 32.263779 0.000000
							}
						}
						JOINT Hat
						{
							OFFSET 16.728800 15.048294 -15.439601
							CHANNELS 3 Xrotation Yrotation Zrotation
							End Site
							{
								OFFSET 0.000000 32.263779 0.000000
							}
						}
					}
				}
				JOINT LeftShoulder
				{
					OFFSET 6.197800 13.665199 -4.064700
					CHANNELS 3 Xrotation Yrotation Zrotation
					JOINT LeftArm
					{
						OFFSET 7.778100 -0.187103 -1.709300
						CHANNELS 3 Xrotation Yrotation Zrotation
						JOINT LeftForeArm
						{
							OFFSET 22.049376 0.000000 0.000000
							CHANNELS 3 Xrotation Yrotation Zrotation
							JOINT LeftHand
							{
								OFFSET 23.009392 0.000000 0.000000
								CHANNELS 3 Xrotation Yrotation Zrotation
								JOINT LeftHandThumb1
								{
									OFFSET 3.507191 -2.063065 3.133727
									CHANNELS 3 Xrotation Yrotation Zrotation
									JOINT LeftHandThumb2
									{
										OFFSET 3.101337 -1.790558 1.790558
										CHANNELS 3 Xrotation Yrotation Zrotation
										JOINT LeftHandThumb3
										{
											OFFSET 3.058640 -1.765907 1.765906
											CHANNELS 3 Xrotation Yrotation Zrotation
											End Site
											{
												OFFSET -0.415260 3.926476 -0.049563
											}
										}
									}
								}
								JOINT LeftHandIndex1
								{
									OFFSET 11.334419 -0.901459 3.706815
									CHANNELS 3 Xrotation Yrotation Zrotation
									JOINT LeftHandIndex2
									{
										OFFSET 3.283112 0.000000 0.000000
										CHANNELS 3 Xrotation Yrotation Zrotation
										JOINT LeftHandIndex3
										{
											OFFSET 3.323853 0.000000 0.000000
											CHANNELS 3 Xrotation Yrotation Zrotation
											End Site
											{
												OFFSET -1.135597 3.097809 0.402452
											}
										}
									}
								}
								JOINT LeftHandMiddle1
								{
									OFFSET 11.335861 0.000000 0.000000
									CHANNELS 3 Xrotation Yrotation Zrotation
									JOINT LeftHandMiddle2
									{
										OFFSET 3.410492 0.000000 0.000000
										CHANNELS 3 Xrotation Yrotation Zrotation
										JOINT LeftHandMiddle3
										{
											OFFSET 3.312172 0.000000 0.000000
											CHANNELS 3 Xrotation Yrotation Zrotation
											End Site
											{
												OFFSET -1.150200 3.080154 0.400270
											}
										}
									}
								}
								JOINT LeftHandRing1
								{
									OFFSET 11.514786 -0.013176 -3.003090
									CHANNELS 3 Xrotation Yrotation Zrotation
									JOINT LeftHandRing2
									{
										OFFSET 3.053307 0.000000 0.000000
										CHANNELS 3 Xrotation Yrotation Zrotation
										JOINT LeftHandRing3
										{
											OFFSET 3.295807 0.000000 0.000000
											CHANNELS 3 Xrotation Yrotation Zrotation
											End Site
											{
												OFFSET -1.281006 3.013344 0.375733
											}
										}
									}
								}
								JOINT LeftHandPinky1
								{
									OFFSET 10.518692 -0.960396 -5.730441
									CHANNELS 3 Xrotation Yrotation Zrotation
									JOINT LeftHandPinky2
									{
										OFFSET 2.861649 0.000000 0.000000
										CHANNELS 3 Xrotation Yrotation Zrotation
										JOINT LeftHandPinky3
										{
											OFFSET 2.863380 0.000000 0.000000
											CHANNELS 3 Xrotation Yrotation Zrotation
											End Site
											{
												OFFSET -0.843597 2.711159 0.369971
											}
										}
									}
								}
							}
							JOINT LSleeve
							{
								OFFSET 6.676277 -0.344902 -1.011730
								CHANNELS 3 Xrotation Yrotation Zrotation
								End Site
								{
									OFFSET 0.000000 14.885353 0.000000
								}
							}
						}
					}
				}
				JOINT RightShoulder
				{
					OFFSET -6.197800 13.665199 -4.064700
					CHANNELS 3 Xrotation Yrotation Zrotation
					JOINT RightArm
					{
						OFFSET -7.778100 -0.187103 -1.709300
						CHANNELS 3 Xrotation Yrotation Zrotation
						JOINT RightForeArm
						{
							OFFSET -22.049376 0.000000 0.000000
							CHANNELS 3 Xrotation Yrotation Zrotation
							JOINT RightHand
							{
								OFFSET -23.009392 0.000000 0.000000
								CHANNELS 3 Xrotation Yrotation Zrotation
								JOINT RightHandThumb1
								{
									OFFSET -3.507191 -2.063065 3.133727
									CHANNELS 3 Xrotation Yrotation Zrotation
									JOINT RightHandThumb2
									{
										OFFSET -3.101337 -1.790558 1.790558
										CHANNELS 3 Xrotation Yrotation Zrotation
										JOINT RightHandThumb3
										{
											OFFSET -3.058640 -1.765907 1.765906
											CHANNELS 3 Xrotation Yrotation Zrotation
											End Site
											{
												OFFSET 0.415260 3.926476 -0.049563
											}
										}
									}
								}
								JOINT RightHandIndex1
								{
									OFFSET -11.334419 -0.901459 3.706815
									CHANNELS 3 Xrotation Yrotation Zrotation
									JOINT RightHandIndex2
									{
										OFFSET -3.283112 0.000000 0.000000
										CHANNELS 3 Xrotation Yrotation Zrotation
										JOINT RightHandIndex3
										{
											OFFSET -3.323853 0.000000 0.000000
											CHANNELS 3 Xrotation Yrotation Zrotation
											End Site
											{
												OFFSET 1.135597 3.097809 0.402452
											}
										}
									}
								}
								JOINT RightHandMiddle1
								{
									OFFSET -11.335861 0.000000 0.000000
									CHANNELS 3 Xrotation Yrotation Zrotation
									JOINT RightHandMiddle2
									{
										OFFSET -3.410492 0.000000 0.000000
										CHANNELS 3 Xrotation Yrotation Zrotation
										JOINT RightHandMiddle3
										{
											OFFSET -3.312172 0.000000 0.000000
											CHANNELS 3 Xrotation Yrotation Zrotation
											End Site
											{
												OFFSET 1.150200 3.080154 0.400270
											}
										}
									}
								}
								JOINT RightHandRing1
								{
									OFFSET -11.514786 -0.013176 -3.003090
									CHANNELS 3 Xrotation Yrotation Zrotation
									JOINT RightHandRing2
									{
										OFFSET -3.053307 0.000000 0.000000
										CHANNELS 3 Xrotation Yrotation Zrotation
										JOINT RightHandRing3
										{
											OFFSET -3.295807 0.000000 0.000000
											CHANNELS 3 Xrotation Yrotation Zrotation
											End Site
											{
												OFFSET 1.281006 3.013344 0.375733
											}
										}
									}
								}
								JOINT RightHandPinky1
								{
									OFFSET -10.518692 -0.960396 -5.730441
									CHANNELS 3 Xrotation Yrotation Zrotation
									JOINT RightHandPinky2
									{
										OFFSET -2.861649 0.000000 0.000000
										CHANNELS 3 Xrotation Yrotation Zrotation
										JOINT RightHandPinky3
										{
											OFFSET -2.863380 0.000000 0.000000
											CHANNELS 3 Xrotation Yrotation Zrotation
											End Site
											{
												OFFSET 0.843597 2.711159 0.369971
											}
										}
									}
								}
							}
							JOINT RSleeve
							{
								OFFSET -6.676277 -0.344902 -1.011730
								CHANNELS 3 Xrotation Yrotation Zrotation
								End Site
								{
									OFFSET 0.000000 14.885353 0.000000
								}
							}
						}
					}
				}
				JOINT Backpack
				{
					OFFSET 0.000000 -2.471497 36.677502
					CHANNELS 3 Xrotation Yrotation Zrotation
					End Site
					{
						OFFSET 0.000000 20.427315 0.000000
					}
				}
				JOINT Hood
				{
					OFFSET 0.000000 18.754097 -10.431000
					CHANNELS 3 Xrotation Yrotation Zrotation
					JOINT Hood1
					{
						OFFSET 0.000000 -5.011002 -7.685901
						CHANNELS 3 Xrotation Yrotation Zrotation
						End Site
						{
							OFFSET 0.000000 9.175140 0.000000
						}
					}
				}
				JOINT LHoodieString
				{
					OFFSET 5.250500 16.397697 3.089900
					CHANNELS 3 Xrotation Yrotation Zrotation
					JOINT LHoodieString1
					{
						OFFSET 0.257700 -6.364304 3.694600
						CHANNELS 3 Xrotation Yrotation Zrotation
						JOINT LHoodieString2
						{
							OFFSET 0.000000 -9.643799 2.679100
							CHANNELS 3 Xrotation Yrotation Zrotation
							End Site
							{
								OFFSET 0.000000 10.009018 0.000000
							}
						}
					}
				}
				JOINT RHoodieString
				{
					OFFSET -5.250500 16.397697 3.089900
					CHANNELS 3 Xrotation Yrotation Zrotation
					JOINT RHoodieString1
					{
						OFFSET -0.257700 -6.364304 3.694600
						CHANNELS 3 Xrotation Yrotation Zrotation
						JOINT RHoodieString2
						{
							OFFSET 0.000000 -9.643799 2.679100
							CHANNELS 3 Xrotation Yrotation Zrotation
							End Site
							{
								OFFSET 0.000000 10.009018 0.000000
							}
						}
					}
				}
			}
			JOINT LBackpack_Strap
			{
				OFFSET 15.223200 -7.719803 -6.610900
				CHANNELS 3 Xrotation Yrotation Zrotation
				End Site
				{
					OFFSET 0.000000 16.040596 0.000000
				}
			}
			JOINT RBackpack_Strap
			{
				OFFSET -15.223000 -7.719803 -6.610900
				CHANNELS 3 Xrotation Yrotation Zrotation
				End Site
				{
					OFFSET 0.000000 16.040596 0.000000
				}
			}
		}
	}
	JOINT BoyFacialAnim_Joint
	{
		OFFSET 1.000000 -82.208099 -1.550900
		CHANNELS 3 Xrotation Yrotation Zrotation
		End Site
		{
			OFFSET 0.000000 30.012791 0.000000
		}
	}
}
MOTION
Frames: 4
Frame Time: 0.033333
0.018766 82.451065 0.246079 -3.753366 -5.223248 -3.509087 0.000000 -0.000000 0.000000 -11.794231 14.473463 10.861188 13.105609 1.996028 4.177048 1.435873 0.535994 -7.636392 0.000000 -0.000000 -0.000000 0.000000 -0.000000 -0.000000 0.000000 -0.000000 0.000001 1.330874 -10.339568 3.344508 5.907925 -9.741989 -3.276656 -2.955496 -1.630729 3.121175 0.000000 0.000000 0.000000 0.000000 0.000000 0.000000 0.000000 0.000000 0.000000 3.303640 1.533233 2.481834 1.151890 0.339457 1.552798 1.126015 0.361543 1.555886 5.626308 -0.078963 0.454683 -7.563344 1.375724 -0.080566 -0.000000 0.000000 0.000000 -0.000000 0.000000 0.000000 -0.000000 0.000000 0.000000 1.049449 -17.442075 -12.319430 3.916259 -19.989250 -69.765226 -0.000000 -1.459365 -0.000003 -33.230407 -1.364829 -6.186633 -0.663004 2.160312 4.832519 11.853571 25.421607 17.058312 -0.000002 -0.000001 -0.000001 0.019864 -0.969580 -7.593525 0.267870 1.752896 -17.375731 -0.000001 0.000000 -0.000005 -0.076310 2.665778 -15.696821 0.268782 1.755804 -17.405547 0.000003 -0.000000 0.000000 0.136910 3.641769 -21.133510 0.386620 2.094786 -20.911925 -0.000002 -0.000001 -0.000002 0.927728 5.555915 -27.128043 0.268794 1.755844 -17.405880 0.000001 0.000001 -0.000000 -0.000000 -0.000000 -0.000001 1.203181 15.343658 14.705969 13.158853 27.555123 58.785157 0.000003 6.693741 0.000005 -20.179090 -0.514101 6.782783 -1.665256 -0.174472 -4.219019 12.710948 -29.825332 -16.130964 -0.000001 0.000005 0.000004 0.038548 1.262293 6.823715 0.213719 -1.396025 17.407031 -0.000000 -0.000000 0.000000 -0.136232 -2.205107 14.998889 0.214447 -1.398346 17.436877 -0.000001 -0.000000 0.000001 0.030612 -3.075756 20.451017 0.308435 -1.668281 20.948515 0.000001 0.000001 0.000001 0.748877 -4.885237 26.473764 0.214460 -1.398385 17.437242 0.000000 0.000001 -0.000001 -0.000002 0.000000 -0.000000 0.000000 -0.000000 -0.000000 0.000000 -0.000000 -0.000000 0.000000 -0.000000 -0.000000 0.000000 -0.000000 -0.000000 0.000000 -0.000000 -0.000000 0.000000 -0.000000 0.000000 0.000000 -0.000000 -0.000000 0.000000 -0.000000 -0.000000 0.000000 -0.000000 0.000000 0.000000 0.000000 -0.000000 0.000000 0.000000 -0.000000 0.000000 -0.000000 0.000000 
-0.034895 82.459000 0.207394 -3.773049 -5.192355 -3.509735 -0.000000 0.000000 0.000000 -11.745439 14.532682 10.903103 12.935809 1.908642 4.162583 1.565433 0.521282 -7.652973 -0.000000 -0.000000 -0.000000 -0.000000 -0.000000 -0.000000 0.000000 -0.000000 -0.000000 1.394609 -10.331154 3.412934 5.789472 -9.766485 -3.286811 -2.892506 -1.641131 3.061560 0.000000 -0.000000 0.000000 0.000000 -0.000000 0.000000 0.000000 0.000000 0.000000 3.309013 1.533358 2.479107 1.158204 0.339911 1.549132 1.132343 0.362067 1.552282 5.639236 -0.074769 0.443290 -7.583540 1.396263 -0.100877 -0.000000 0.000000 0.000000 -0.000000 0.000000 0.000000 -0.000000 0.000000 0.000000 1.048238 -17.463216 -12.333374 3.934688 -19.901004 -69.748697 0.000000 -1.437181 -0.000003 -33.197561 -1.357159 -6.171057 -0.672138 2.145697 4.827595 11.841613 25.397444 17.065555 0.000002 0.000000 -0.000003 0.020457 -0.971536 -7.584350 0.268060 1.753489 -17.381785 0.000001 -0.000001 -0.000004 -0.078577 2.657880 -15.699571 0.268743 1.755676 -17.404164 0.000001 -0.000001 -0.000002 0.131201 3.625659 -21.103476 0.386330 2.094022 -20.903958 -0.000000 0.000001 -0.000002 0.928219 5.556969 -27.130725 0.268616 1.755289 -17.400213 0.000000 0.000000 -0.000002 -0.000002 -0.000000 -0.000000 1.202738 15.365059 14.707820 13.164248 27.537390 58.818215 0.000004 6.676439 0.000009 -20.153928 -0.538548 6.799732 -1.672017 -0.156257 -4.251824 12.697552 -29.800669 -16.133887 -0.000002 0.000001 0.000000 0.041803 1.270869 6.767753 0.211475 -1.388869 17.314734 -0.000002 0.000001 0.000004 -0.136979 -2.204787 15.026729 0.214448 -1.398330 17.436590 0.000000 0.000000 0.000002 0.029936 -3.072275 20.413246 0.308480 -1.668372 20.949799 -0.000000 -0.000001 -0.000002 0.747357 -4.883969 26.423898 0.217751 -1.408835 17.571862 0.000003 0.000000 -0.000001 -0.000001 0.000000 -0.000000 -0.000000 -0.000000 0.000000 -0.000000 -0.000000 0.000000 -0.000000 -0.000000 0.000000 -0.000000 -0.000000 0.000000 -0.000000 -0.000000 0.000000 -0.000000 0.000000 0.000000 -0.000000 -0.000000 0.000000 -0.000000 -0.000000 0.000000 -0.000000 0.000000 0.000000 0.000000 0.000000 -0.000000 0.000000 0.000000 -0.000000 -0.000000 0.000000 0.000000 
-0.099851 82.466194 0.165267 -3.791908 -5.155141 -3.517257 0.000000 0.000000 -0.000000 -11.712687 14.620816 10.967334 12.765431 1.800163 4.151007 1.700777 0.486691 -7.676288 0.000000 0.000000 -0.000000 0.000000 0.000000 0.000000 -0.000000 0.000000 0.000000 1.462810 -10.300210 3.504945 5.659619 -9.830561 -3.304893 -2.826490 -1.641198 2.996631 0.000000 0.000000 -0.000000 0.000000 0.000000 -0.000000 -0.000000 -0.000001 0.000000 3.313609 1.531616 2.477290 1.163466 0.337093 1.545940 1.137609 0.359302 1.549118 5.662206 -0.070921 0.433969 -7.578864 1.418906 -0.128167 0.000000 0.000000 -0.000000 0.000000 0.000000 -0.000000 0.000000 0.000000 -0.000000 1.047877 -17.484357 -12.340711 3.971600 -19.838368 -69.733192 -0.000012 -1.427150 0.000012 -33.190266 -1.366027 -6.177354 -0.679848 2.133117 4.825511 11.836681 25.387569 17.068631 0.000000 0.000001 -0.000003 0.020126 -0.971992 -7.590274 0.267595 1.752001 -17.366555 -0.000002 -0.000001 -0.000000 -0.078389 2.658797 -15.702197 0.268560 1.755104 -17.398327 0.000001 -0.000002 -0.000005 0.126541 3.613004 -21.090770 0.386342 2.094062 -20.904318 -0.000000 -0.000000 -0.000000 0.928230 5.557222 -27.120741 0.268425 1.754673 -17.393872 -0.000001 -0.000000 0.000002 -0.000004 0.000001 0.000000 1.200206 15.371737 14.721829 13.173749 27.540272 58.838344 0.000008 6.666655 -0.000011 -20.145885 -0.543907 6.820012 -1.670614 -0.155506 -4.270233 12.697159 -29.799900 -16.133947 0.000001 0.000001 0.000000 0.040753 1.281767 6.752453 0.210024 -1.384197 17.254849 0.000002 -0.000001 0.000002 -0.135807 -2.208792 15.022325 0.214579 -1.398763 17.442143 0.000002 0.000000 0.000003 0.028123 -3.066951 20.403643 0.308480 -1.668383 20.949903 -0.000001 0.000001 -0.000001 0.747667 -4.885838 26.409958 0.218916 -1.412470 17.618765 0.000000 0.000000 -0.000003 0.000001 -0.000000 -0.000001 0.000000 0.000000 0.000000 0.000000 0.000000 0.000000 0.000000 0.000000 0.000000 0.000000 0.000000 0.000000 0.000000 0.000000 0.000000 0.000000 0.000000 0.000000 0.000000 0.000000 0.000000 0.000000 0.000000 0.000000 0.000000 0.000000 0.000000 -0.000000 0.000000 0.000000 -0.000000 0.000000 0.000000 0.000000 0.000000 -0.000000 
-0.180685 82.471802 0.119215 -3.812140 -5.109988 -3.532123 0.000000 0.000000 0.000000 -11.693952 14.728757 11.052167 12.594684 1.676048 4.151628 1.843439 0.433991 -7.715766 0.000000 0.000000 0.000000 0.000000 0.000000 0.000000 0.000000 -0.000000 0.000000 1.532832 -10.263647 3.618615 5.533891 -9.908982 -3.321052 -2.766866 -1.641039 2.917373 -0.000000 -0.000000 0.000000 -0.000000 -0.000000 0.000000 0.000000 0.000001 0.000000 3.318988 1.528476 2.474389 1.169796 0.331861 1.540541 1.143929 0.354124 1.543735 5.695538 -0.069890 0.425794 -7.553976 1.430617 -0.163620 0.000000 0.000000 -0.000000 0.000000 0.000000 -0.000000 0.000000 0.000000 -0.000000 1.048916 -17.513633 -12.338920 4.018626 -19.785661 -69.716875 -0.000002 -1.425006 0.000006 -33.199166 -1.387348 -6.196678 -0.678199 2.136379 4.821236 11.839691 25.393588 17.066754 0.000000 -0.000001 -0.000002 0.023399 -0.962993 -7.603544 0.267320 1.751131 -17.357701 -0.000000 0.000000 -0.000000 -0.077928 2.661221 -15.710999 0.268434 1.754676 -17.393999 0.000001 -0.000001 -0.000002 0.125677 3.611112 -21.098716 0.386367 2.094116 -20.904863 0.000000 0.000001 -0.000002 0.928195 5.557457 -27.111287 0.268356 1.754445 -17.391586 0.000001 -0.000001 0.000001 -0.000000 0.000000 0.000000 1.195345 15.366119 14.749269 13.184939 27.566099 58.850850 0.000005 6.668072 0.000018 -20.159488 -0.534011 6.836136 -1.669618 -0.155543 -4.280116 12.696493 -29.798678 -16.134114 -0.000001 0.000003 0.000004 0.039698 1.281735 6.764323 0.209673 -1.383063 17.240191 -0.000001 -0.000001 0.000003 -0.135157 -2.208099 14.987631 0.214709 -1.399182 17.447599 0.000001 0.000001 0.000004 0.024721 -3.058008 20.408660 0.308308 -1.667933 20.944087 0.000001 0.000003 0.000001 0.747878 -4.886748 26.407844 0.218301 -1.410548 17.593898 -0.000000 -0.000002 -0.000000 -0.000000 0.000000 -0.000001 0.000000 -0.000000 -0.000000 0.000000 -0.000000 -0.000000 0.000000 -0.000000 -0.000000 0.000000 -0.000000 -0.000000 0.000000 -0.000000 -0.000000 0.000000 -0.000000 0.000000 0.000000 -0.000000 -0.000000 0.000000 -0.000000 -0.000000 0.000000 -0.000000 0.000000 0.000000 0.000000 -0.000000 0.000000 0.000000 -0.000000 0.000000 0.000000 0.000000 
